# xmcd
# 
# Track frame offsets:
#     150
#     72761
#     192674
#     219095
#     236078
#     264204
#     309051
# 
# Disc length: 4410
# 
# Revision: 0
# Processed by: cddbd v1.5.2PL0 Copyright (c) Steve Scherf et al.
# Submitted via: fre:ac v1.0.17
# 
DISCID=57113807
DTITLE=Grateful Dead - Dave's Picks Volume 9 Disc 3
DYEAR=1974
DGENRE=
TTITLE0=Weather Report Suite>
TTITLE1=Dark Star>
TTITLE2=China Doll
TTITLE3=Promised Land
TTITLE4=Not Fade Away>
TTITLE5=Goin' Down The Road Feelin' Bad
TTITLE6=One Mroe Saturday Night
EXTD=
EXTT0=
EXTT1=
EXTT2=
EXTT3=
EXTT4=
EXTT5=
EXTT6=
PLAYORDER=
